<svg xmlns="http://www.w3.org/2000/svg" xmlns:xlink="http://www.w3.org/1999/xlink" viewBox="0 0 1291.25 435.5"><defs><style>.cls-1{opacity:0.98;font-size:144.92px;fill:#fcfcfc;font-family:Equinox-Bold, Equinox;font-weight:700;letter-spacing:0.2em;}.cls-2{letter-spacing:0.33em;}.cls-3{fill:#fff;}.cls-4{fill:url(#linear-gradient);}.cls-5{fill:#00ffd1;}</style><linearGradient id="linear-gradient" x1="20.41" y1="153.17" x2="279.65" y2="283.95" gradientUnits="userSpaceOnUse"><stop offset="0" stop-color="#6841ea"/><stop offset="0.11" stop-color="#6547e9"/><stop offset="0.26" stop-color="#5b58e7"/><stop offset="0.44" stop-color="#4c74e3"/><stop offset="0.62" stop-color="#369bde"/><stop offset="0.82" stop-color="#1bcdd8"/><stop offset="1" stop-color="#00ffd1"/></linearGradient></defs><g id="Layer_2" data-name="Layer 2"><g id="Layer_1-2" data-name="Layer 1"><text class="cls-1" transform="translate(362.6 244.25)">DIGI CERT<tspan class="cls-2"><tspan x="0" y="173.9">Licence</tspan></tspan></text><path class="cls-3" d="M22.73,316.14c3.19-5.42,6.4-10.82,9.57-16.25q17.33-29.61,34.63-59.23,21.1-36.09,42.2-72.17c1.25-2.13,2.45-4.3,3.76-6.4a1.54,1.54,0,0,0-.12-2.09,11.35,11.35,0,0,1-.76-1.06L1,1.78,0,.32.22,0,290.36,127.42c-.23.55-.43,1-.64,1.49l-51.06,113.8q-12.81,28.53-25.61,57.08a1.84,1.84,0,0,1-1.81,1.26q-93.42,7.53-186.84,15.1c-.51,0-1,.13-1.52.2Z"/><path class="cls-4" d="M22.73,316.14c3.19-5.42,6.4-10.82,9.57-16.25q17.33-29.61,34.63-59.23,21.1-36.09,42.2-72.17c1.25-2.13,2.45-4.3,3.76-6.4a1.54,1.54,0,0,0-.12-2.09,11.35,11.35,0,0,1-.76-1.06L1,1.78,0,.32.22,0,290.36,127.42c-.23.55-.43,1-.64,1.49l-51.06,113.8q-12.81,28.53-25.61,57.08a1.84,1.84,0,0,1-1.81,1.26q-93.42,7.53-186.84,15.1c-.51,0-1,.13-1.52.2Z"/><path class="cls-5" d="M308.33,153.66l-.66,281.69-.26.15c-.29-.36-.61-.72-.88-1.1l-25-35.34Q256.46,363.5,231.33,328a2.63,2.63,0,0,1-.31-3q31.06-69,62.08-138.08,7.2-16,14.41-32.05c.17-.39.36-.78.55-1.16Z"/></g></g></svg>